<svg width="50" height="50" xmlns="http://www.w3.org/2000/svg">
 <g>
  <title>background</title>
  <rect x="-1" y="-1" width="52" height="52" id="canvas_background" fill="none"/>
 </g>
 <g>
  <title>Layer 1</title>
  <path d="m17.544345,8.144315c-0.114167,0.001333 -0.227427,0.032447 -0.329427,0.092447c-0.202667,0.12 -0.328127,0.33822 -0.328127,0.57422l0,8.235681c0,0.256 0.146273,0.490893 0.377607,0.60156l12.000001,5.763021c0.091333,0.044 0.19106,0.066407 0.28906,0.066407c0.129333,0 0.25846,-0.03798 0.369793,-0.11198l6.000001,-4c0.193333,-0.128667 0.305573,-0.349367 0.295573,-0.582033c-0.009333,-0.232 -0.13912,-0.44202 -0.342447,-0.554687l-18.000002,-10.000001c-0.103333,-0.057333 -0.217867,-0.085967 -0.332033,-0.084633l0.000001,-0.000002zm0.02604,11.333335c-0.116913,-0.003 -0.23384,0.025633 -0.33984,0.084633c-0.212,0.117333 -0.343753,0.339367 -0.343753,0.582033l0,20.665369c0,0.506667 0.542313,0.829267 0.98698,0.585933l18.677082,-10.673175c0.208,-0.118667 0.33594,-0.338793 0.33594,-0.578127l0,-8.666668c0,-0.272 -0.164667,-0.516487 -0.416667,-0.618487c-0.253333,-0.101333 -0.5418,-0.040387 -0.730467,0.154947l-17.519535,18.463542l5.303387,-15.803388c0.088667,-0.288667 -0.027853,-0.60172 -0.283853,-0.76172l-5.333334,-3.333334c-0.103,-0.064333 -0.21902,-0.09856 -0.33594,-0.10156l0,0.000002z" id="svg_1" stroke="null"/>
  <desc/>
  <defs>
   <style>.cls-1{fill:#2d3e50;}</style>
  </defs>
  <g stroke="null" id="svg_20" transform="rotate(-137.3994903564453 25.09406280517578,24.996171951293952) ">
   <path stroke="null" class="cls-1" d="m43.834305,8.446746a25.132058,25.132058 0 0 0 -8.039695,-6.03249a24.843562,24.843562 0 0 0 -4.659062,-1.661138a25.044448,25.044448 0 0 0 -27.27308,37.56699l1.684207,-1.053141c-0.259211,-0.565924 -0.510285,-1.1305 -0.732857,-1.703211l-0.165568,-0.430212c-0.052933,-0.143856 -0.101784,-0.290428 -0.151997,-0.434284c-0.104503,-0.287713 -0.192713,-0.58086 -0.28093,-0.87128a23.194304,23.194304 0 0 1 -0.715214,-10.600629a21.622349,21.622349 0 0 1 0.825143,-3.367063a23.056468,23.056468 0 0 1 1.323203,-3.153993a21.780184,21.780184 0 0 1 3.968277,-5.416328a21.30878,21.30878 0 0 1 5.330851,-3.86785a20.748619,20.748619 0 0 1 6.139701,-2.001783a22.816493,22.816493 0 0 1 3.201487,-0.24836l0.802075,0.009502c0.267351,0.016286 0.534715,0.023068 0.800717,0.048856c0.531997,0.038004 1.059924,0.10586 1.58378,0.187287c0.261926,0.039354 0.523856,0.084141 0.783079,0.135715l-2.734645,4.561334l18.31053,-1.667921l0,-0.000001z" id="svg_18"/>
   <path stroke="null" class="cls-1" d="m29.93283,49.497381a25.123299,25.123299 0 0 1 -6.061339,0.449592a24.804275,24.804275 0 0 1 -4.89231,-0.728108a25.128227,25.128227 0 0 1 -9.054791,-4.362169l4.083374,-1.199761l0.001325,0.000297l13.556708,-3.981277l-1.800355,5.004121q0.396125,0.001068 0.795365,-0.01803c0.528935,-0.02066 1.060099,-0.057506 1.589243,-0.122627c0.266035,-0.026668 0.530341,-0.070412 0.795805,-0.10694l0.787909,-0.146258a22.769684,22.769684 0 0 0 3.092774,-0.862454a20.788703,20.788703 0 0 0 5.637225,-3.152167a21.33804,21.33804 0 0 0 4.480927,-4.826802a21.755615,21.755615 0 0 0 2.845425,-6.0816a23.236907,23.236907 0 0 0 0.687548,-3.350717a20.4354,20.4354 0 0 0 0.166387,-2.936137c-0.001048,-0.175469 -0.005038,-0.350205 -0.008736,-0.526265a22.348966,22.348966 0 0 0 -0.662173,-4.832232l2.775131,-0.978066a25.049356,25.049356 0 0 1 -18.815426,32.757611l-0.000016,-0.000012l-0.000001,0.000001z" id="svg_19"/>
  </g>
 </g>
</svg>